<?xml version="1.0" encoding="iso-8859-1"?>
<!-- Generator: Adobe Illustrator 19.0.0, SVG Export Plug-In . SVG Version: 6.00 Build 0)  -->
<svg version="1.1" id="Capa_1" xmlns="http://www.w3.org/2000/svg" xmlns:xlink="http://www.w3.org/1999/xlink" x="0px" y="0px"
	 viewBox="0 0 496 496" style="enable-background:new 0 0 496 496;" xml:space="preserve">
<g>
	<path style="fill:#FFCB57;" d="M360.004,232v-24h-17.92c-3.256,14.816-10.624,28.536-21.512,39.432L312.004,256v32v16l48,16
		c24-8,24-32,24-32C368.004,272,360.004,256,360.004,232z"/>
	<path style="fill:#FFCB57;" d="M184.004,288v-32l-8.568-8.568c-10.896-10.896-18.264-24.616-21.512-39.432h-17.92v24
		c0,24-8,40-24,56c0,0,0,24,24,32l48-16V288z"/>
</g>
<polygon style="fill:#E56565;" points="260.948,416 279.164,379.576 264.844,372.424 248.004,406.112 231.164,372.424 
	216.844,379.576 235.06,416 208.004,416 208.004,488 224.004,488 224.004,432 272.004,432 272.004,488 288.004,488 288.004,416 "/>
<path style="fill:#FFCB57;" d="M408.004,112h-48c0-57.44-24-104-112-104s-112,46.56-112,104h-48c-8.84,0-16,7.16-16,16
	s7.16,16,16,16h320c8.84,0,16-7.16,16-16S416.844,112,408.004,112z"/>
<g>
	<path style="fill:#3F3A34;" d="M447.812,390.192c-5.368-32.232-27.968-58.68-58.976-69.016l-10.128-3.376
		c10.064-9.672,13.296-22.512,13.296-29.8v-3.312l-2.344-2.344c-15.584-15.584-21.656-29.696-21.656-50.344h-16
		c0,23.536,7.12,41.36,23.688,58.928c-0.856,5.144-4.144,15.496-16.008,20.536l-39.68-13.232V288h-16v15.008l-11.944,47.768
		L259.748,312h-23.496l-32.312,38.776l-11.936-47.768V288h-16v10.232l-39.68,13.224c-11.88-5.048-15.168-15.416-16.016-20.528
		c16.576-17.568,23.696-35.392,23.696-58.928h-16c0,20.648-6.072,34.76-21.656,50.344l-2.344,2.344V288
		c0,7.288,3.232,20.128,13.288,29.808l-10.128,3.376c-31,10.336-53.6,36.784-58.976,69.016L30.556,496h434.888L447.812,390.192z
		 M388.812,480c1.776-5.768,3.192-13.536,3.192-24c0-26.12-16.64-51.376-17.344-52.44l-13.312,8.872
		c0.144,0.224,14.656,22.232,14.656,43.568c0,13.272-2.64,20.624-4.312,24H124.348c-1.736-3.472-4.344-10.816-4.344-24
		c0-21.208,14.512-43.344,14.664-43.568l-13.32-8.864c-0.704,1.056-17.344,26.312-17.344,52.432c0,10.464,1.416,18.232,3.192,24
		H49.452l14.528-87.168c4.392-26.376,22.888-48.008,48.256-56.472l66.104-22.04l17.728,70.904L243.748,328h8.504l47.688,57.224
		l17.728-70.904l66.104,22.04c25.368,8.456,43.856,30.096,48.256,56.472L446.556,480H388.812z"/>
	<path style="fill:#3F3A34;" d="M88.004,152h32.208c-5.08,6.704-8.208,14.96-8.208,24c0,20.528,15.6,37.296,35.536,39.552
		c4.08,14.04,11.616,26.912,22.24,37.536l31.2,31.2C208.532,291.84,218.572,296,229.26,296h37.496c10.68,0,20.728-4.16,28.28-11.712
		l31.2-31.2c10.624-10.624,18.16-23.504,22.24-37.536c19.928-2.256,35.528-19.024,35.528-39.552c0-9.04-3.128-17.296-8.208-24
		h32.208c13.232,0,24-10.768,24-24s-10.768-24-24-24h-40.28c-2.88-68.952-43.04-104-119.72-104s-116.84,35.048-119.72,104h-40.28
		c-13.232,0-24,10.768-24,24S74.772,152,88.004,152z M128.004,176c0-10.416,6.712-19.216,16-22.528v37.392
		c0,2.616,0.152,5.208,0.376,7.784C134.9,195.44,128.004,186.552,128.004,176z M314.916,241.776l-31.2,31.2
		c-4.464,4.464-10.648,7.024-16.968,7.024h-37.496c-6.32,0-12.496-2.56-16.968-7.024l-31.2-31.2
		c-13.6-13.6-21.088-31.68-21.088-50.912V152h176v38.864C336.004,210.096,328.516,228.176,314.916,241.776z M351.628,198.64
		c0.224-2.568,0.376-5.16,0.376-7.776v-37.392c9.288,3.312,16,12.112,16,22.528C368.004,186.552,361.108,195.44,351.628,198.64z
		 M248.004,16c67.968,0,101.064,28.08,103.736,88H144.268C146.94,44.08,180.036,16,248.004,16z M88.004,120h320c4.408,0,8,3.592,8,8
		s-3.592,8-8,8h-320c-4.408,0-8-3.592-8-8S83.596,120,88.004,120z"/>
	<rect x="168.004" y="72" style="fill:#3F3A34;" width="16" height="16"/>
	<rect x="200.004" y="72" style="fill:#3F3A34;" width="112" height="16"/>
</g>
<g>
</g>
<g>
</g>
<g>
</g>
<g>
</g>
<g>
</g>
<g>
</g>
<g>
</g>
<g>
</g>
<g>
</g>
<g>
</g>
<g>
</g>
<g>
</g>
<g>
</g>
<g>
</g>
<g>
</g>
</svg>
